<svg id="Layer_1" data-name="Layer 1" xmlns="http://www.w3.org/2000/svg" viewBox="0 0 807.87 209.5"><defs><style>.cls-1{fill:#00bae3;}.cls-2{fill:#fff;}</style></defs><title>Logo_Web</title><path class="cls-1" d="M87.87,190.65c-0.87.25-4,.3-4.05,0.78C84.81,190.83,87.23,191.19,87.87,190.65Z" transform="translate(0 -0.13)"/><path class="cls-1" d="M103.6,188.81a75,75,0,0,0,8.12-1.57l-1.1,0C108.17,187.85,104.94,188.13,103.6,188.81Z" transform="translate(0 -0.13)"/><path class="cls-1" d="M74.71,192.62l-3.41.25C70.25,193.22,74.23,193.05,74.71,192.62Z" transform="translate(0 -0.13)"/><path class="cls-1" d="M101.79,187.67c-0.13.35-1.56,0.52-3.18,0.66a10.73,10.73,0,0,1,1.56-.53c-2.64.62-2.83,0.59-4.95,1,2.17-.06,5.4-0.34,5.12.12C101.9,188.44,103.8,187.71,101.79,187.67Z" transform="translate(0 -0.13)"/><path class="cls-1" d="M95.72,188.54l-0.19,0C95.66,188.61,95.73,188.61,95.72,188.54Z" transform="translate(0 -0.13)"/><path class="cls-1" d="M24.37,197.55l-2.84.46c-2.73,0,1.7-.75-0.12-0.77-3.56.49-1.12,1-5.59,1.44,0.4,0.31,7.13-1,6.49-.31C26.07,198.05,22.44,198,24.37,197.55Z" transform="translate(0 -0.13)"/><path class="cls-1" d="M30.15,194.88l1.06-.22-2.17.06c-3.53.74-3.67,1.1-4.49,1.6,3.15-.79,5.13-0.88,9.22-1.54Z" transform="translate(0 -0.13)"/><path class="cls-1" d="M34.15,197.35l0.5-.31-2.34.16A10,10,0,0,0,34.15,197.35Z" transform="translate(0 -0.13)"/><path class="cls-1" d="M70.18,191.95c1.42,0,1.94.7,3.63-.33l-0.37-.06a26.21,26.21,0,0,0,3.91-.69,2.15,2.15,0,0,0-.48-0.13c-0.63.08-1.47,0.17-2.75,0.29A16,16,0,0,0,70.18,191.95Z" transform="translate(0 -0.13)"/><path class="cls-1" d="M129.57,181l-1,.19-0.72-.11c-1.49.23-1.52,0.11-1.35,0-5.29,0-8,1.44-13.67,1.6-1,.48,1.31.32,1.52,0.47-0.84.38-4,1-5.6,1.44-2.56-.13-10.28.5-9.14-0.33-4.63.57,1.5,0.22-.79,0.76l-0.53,0a16.87,16.87,0,0,1,3.82.06c0.4,0.31-3.67,1-4.93,1l0.81-.63c-4.24.76-3.25,1.41-5.83,2.28-3.42.26-1.53-.47-2.31-0.84l-3.55.61-0.05-.39a41,41,0,0,1-6,1.13c2.27-.68-4.86.29-1.72-0.63-1.8.11-2.21,0.93-3.19,0.54-1.18.58,1.63,0,2.54,0,0.81,0.49-3.88.81-6,1.26-0.22-.28,1.38-0.55-1.17-0.42a7.57,7.57,0,0,1-3.53.61c0.05,0.39-2.84.46-4.27,0.63,1.62-.14,4-0.17,3,0.3a32.64,32.64,0,0,1-5.15.88l2-.09c-2.41.9-4.16,0.15-7.52,0.78,1.4-.42,2.29-0.55,3.49-1-1.58.4-4.57,1.09-7,1.61l-2.93-.18c-0.32.33-3.21,0.41-3.16,0.79-3.59.22,2.79-.85,3.11-1.18-4.49.35-3.48,1.13-7.84,1.11l1.37-.55a41.33,41.33,0,0,1-4.45.6,4.24,4.24,0,0,0,1.62-.14c-0.77.89-6.51,1.43-5.87,2.15l2-.21c-3,.56-5.06,1.39-7.42,1.42-1.82,0,1.18-.71,2.2-1.06-2.84.33-2.19,1.19-5.58,1.57,1.8-.11,1.5.22,0.46,0.57,2-.21,6.08-0.61,5.31-0.85l-0.72,0a6.3,6.3,0,0,1,1.73-.63c2.68-.36,1.3.19,1.85,0.27,4.47-.48.26-0.85,4.34-1.37l0.55,0.08c1.94-.47,5-0.91,5.43-1.47,1.86,0.27,4.59-.83,6.59-0.79,0.53,1.08-6.95.86-9.18,1.79,2.17-.06-1.15.71-2,1.08l6.69-1.4a7.65,7.65,0,0,0,3.79-.2l-0.53,0c2.66-.49,1.88-0.86,4.22-1,0.37,0.05-.31.33-0.48,0.43,2.15-.19,1.74-0.5,3.16-0.79,2.15-.19-1,0.61.8,0.49,2.42-.77,3.93-0.43,6.08-0.74-1-.52,8.42-2,3.71-2l5.09-1.14c1.65,0.12-3.43,1.38-1.93,1.73l-4.11.53c0.79,0.71,8.52-1.68,11.37-1.16a41.8,41.8,0,0,1,5.85-.47l-0.81-.62c2.17-.13,2.92.17,3,0.28,1.26-.22,2.39-0.35,3.57-0.48a5.45,5.45,0,0,1-1.48.44,3.79,3.79,0,0,0,2.66-.32,20.5,20.5,0,0,1,3.53-.63l-1.18.43a7,7,0,0,0,1.89-.53c0.56-.08,1.09-0.17,1.59-0.28a10.89,10.89,0,0,0-3.28-.29c5-.39,8.92-1.08,13.28-1.07-0.13.23-1.88,0.73-1.34,0.68,2.15-.19,4.42-0.86,4.19-1.14l1.18-.19a4.71,4.71,0,0,0,2,.14,6.12,6.12,0,0,0,1.37,0c0.64-.66,4.78-0.93,5.63-1.31-1,.07-2.16.24-3.36,0.42,1.67-.61,3.15-1.25,4.52-1.13-3.15.79,3.49,0.13-1.31,0.94,3.48,0.26,1.7-.75,5.31-1l2.35,0c-0.3.46-3.72,0.71-3.16,0.79l1.6-.27c-1.57.53-7.66,1.14-11.32,2.11l7.52-.78c3.06-.58,6.38-1.07,9.74-1.55A29.58,29.58,0,0,1,129.57,181ZM90,189.45l0.42-.19h0Zm38-8.19,0.53,0C127.28,181.53,126.63,181.71,127.9,181.25Z" transform="translate(0 -0.13)"/><polygon class="cls-1" points="394.5 149.73 395.74 149.83 394.24 149.6 394.5 149.73"/><path class="cls-1" d="M389.55,150.75c1.84-.12,2.89-0.36,2.36-0.63C389.87,150.4,391,150.45,389.55,150.75Z" transform="translate(0 -0.13)"/><path class="cls-1" d="M14.71,198.65c-2.8.72-6.26,0.72-8,1.47C9.65,200,14.07,199.31,14.71,198.65Z" transform="translate(0 -0.13)"/><path class="cls-1" d="M70.18,191.95a6.34,6.34,0,0,0-2.07.33A11.7,11.7,0,0,0,70.18,191.95Z" transform="translate(0 -0.13)"/><path class="cls-1" d="M126.54,181.16h0.26C126.87,181.07,126.66,181.11,126.54,181.16Z" transform="translate(0 -0.13)"/><path class="cls-1" d="M84.95,189.94l-0.1,0C85,190,85,190,84.95,189.94Z" transform="translate(0 -0.13)"/><path class="cls-1" d="M550,122.39l1.19-.62a5.15,5.15,0,0,1-1.41.15C549,122.21,549.49,122.3,550,122.39Z" transform="translate(0 -0.13)"/><path class="cls-1" d="M227.4,165.79c0.64,0,1.23-.09,1.72-0.16C228.53,165.66,228,165.72,227.4,165.79Z" transform="translate(0 -0.13)"/><path class="cls-1" d="M214.26,168.75c3-.36,6.5-0.78,5.72-1.47,2-.29,4.47-1.11,7.43-1.48a63.54,63.54,0,0,0-9.47,1l-0.06.73a26.69,26.69,0,0,0-3.66.91C214.22,168.53,214.24,168.64,214.26,168.75Z" transform="translate(0 -0.13)"/><path class="cls-1" d="M619.78,113.6c-0.25.37,0.48,0.23-1.89,0.77,3.26-.65,6.09-1,9.85-1.52-0.67-.12,2.09-0.87.66-0.58l-4.17.77,0.6-.31C621.84,112.87,623,113.36,619.78,113.6Z" transform="translate(0 -0.13)"/><path class="cls-1" d="M112,182.88a51.74,51.74,0,0,0-5.06,1.39l0.37,0.06Z" transform="translate(0 -0.13)"/><path class="cls-1" d="M558.26,121c-3.73.42-4.19,0.9-7.42,1.42,1.4,0,3.27-.65,5-0.74l-0.75.28Z" transform="translate(0 -0.13)"/><path class="cls-1" d="M242.27,163.68a16.78,16.78,0,0,0-4.38.91c2.08-.4,3.92-0.72,6.33-1.31C243.3,163.43,242.15,163.4,242.27,163.68Z" transform="translate(0 -0.13)"/><path class="cls-1" d="M102.94,184.44l3.16-.66-2.58-.25C99.81,184.24,103.4,183.89,102.94,184.44Z" transform="translate(0 -0.13)"/><path class="cls-1" d="M261.21,161.24c-1,.28-2.32.39-2,0.57C259.82,161.83,261.88,161.31,261.21,161.24Z" transform="translate(0 -0.13)"/><polygon class="cls-1" points="12.81 197.99 8.57 198.75 8.94 198.81 12.81 197.99"/><polygon class="cls-1" points="12.51 198.32 10.39 198.77 10.07 199.1 12.51 198.32"/><path class="cls-1" d="M3.62,199.92a6.36,6.36,0,0,0-1.34.12Z" transform="translate(0 -0.13)"/><path class="cls-1" d="M2.28,200l-1.89.17C-0.75,200.78.82,200.28,2.28,200Z" transform="translate(0 -0.13)"/><path class="cls-1" d="M92.12,186.25c2.83-.46.24,0.41,2.71-0.11l0.27-.58c-2.5.26,0.2,0.16-.67,0.4A10,10,0,0,0,92.12,186.25Z" transform="translate(0 -0.13)"/><path class="cls-1" d="M59.13,190.59l-1.74.5c1.63,0,3.77-.33,4.08-0.66C59.35,190.87,60.92,190.35,59.13,190.59Z" transform="translate(0 -0.13)"/><path class="cls-1" d="M84.59,186.9l-0.84.51c2.36,0-1-.39,2.24-0.8a46.16,46.16,0,0,0-5,.27C81.34,187.06,82.1,187.3,84.59,186.9Z" transform="translate(0 -0.13)"/><path class="cls-1" d="M75.82,187.88c1.79-.24,4.34-0.12,5-0.52C79.71,187.07,78,187.7,75.82,187.88Z" transform="translate(0 -0.13)"/><path class="cls-1" d="M292.94,163.19l-1.45.35A6.75,6.75,0,0,0,292.94,163.19Z" transform="translate(0 -0.13)"/><path class="cls-1" d="M480.48,137L480,137c0.35,0.18.07,0.29,1.89,0.17,1.49-.55-1-0.74,1.66-1.48a16.69,16.69,0,0,1-2,.25C482.67,136.06,481.63,136.53,480.48,137Z" transform="translate(0 -0.13)"/><path class="cls-1" d="M447,142.32l-1,.15Z" transform="translate(0 -0.13)"/><path class="cls-1" d="M481.53,135.91l-0.08,0a2.85,2.85,0,0,0-.41-0.07,10.79,10.79,0,0,1-1.08.09A8.4,8.4,0,0,0,481.53,135.91Z" transform="translate(0 -0.13)"/><path class="cls-1" d="M466.68,137.78a0.43,0.43,0,0,0-.22.2h0.09l0.5-.22Z" transform="translate(0 -0.13)"/><path class="cls-1" d="M464.75,137.9l1.93-.12c0.87-.4,3.76-0.27,4.63-0.73Z" transform="translate(0 -0.13)"/><path class="cls-1" d="M655.34,114.6l-1.23.12A3.8,3.8,0,0,0,655.34,114.6Z" transform="translate(0 -0.13)"/><path class="cls-1" d="M693.26,109.86a0.06,0.06,0,0,1,0-.05l-0.13,0Z" transform="translate(0 -0.13)"/><path class="cls-1" d="M691.88,109.88a19.64,19.64,0,0,1-2.82.18c-2.26.84,4.81-.64,1.49,0.28,1-.14,1.84-0.32,2.59-0.5l-1.54-.29C689.59,110,693,109.53,691.88,109.88Z" transform="translate(0 -0.13)"/><path class="cls-1" d="M435.26,143.84a0.09,0.09,0,0,0,.06-0.11C435.26,143.77,435.23,143.81,435.26,143.84Z" transform="translate(0 -0.13)"/><path class="cls-1" d="M591.27,116.53l0.84,0A5.91,5.91,0,0,0,591.27,116.53Z" transform="translate(0 -0.13)"/><path class="cls-1" d="M799.4,92.79c2.49-.71-4.09-0.27-2.91-1L796,92.1c-6.77,0-15.35,1-23.82,1.8-5.23,1.37-9.08,1-14.73,2.18-0.79.86-1,.29-5.93,1.11,2.58-.44.23-0.61-1.42-0.49a25.36,25.36,0,0,1-3.24.77c-1-.12-7.28.12-9.47,0.93-3,.16.67-0.33,1.29-0.58-1.27-.22-2.39.63-3.41,0.51a0.51,0.51,0,0,1,.34-0.17c-4.56.65-7.31,0.82-12.07,1.37-0.29.78-4.63,0.91-6.71,1.45,0.65-.33-2.71.09-4.07,0.13l-2.47.89c-2.46.8-3.55,0.15-6.77,0.84l0.8,0a66.45,66.45,0,0,1-11.06.87c-21.77,4.4-34.09,3.8-57.19,7.31-1.48.42,1.15,0.22,0,.71-2.34.4-2.88,0.44-5,.74,1.92-.06,1.58-0.26,1.37,0l3.25-.65c0.17,0-.19.1,0.13,0.16,1.09-.22,2.37-0.54,3.79-0.69-2,.46-2.5,1.08-5.3,1.25a6.28,6.28,0,0,1,1.28-.32c-2.3.27-2.37,0.54-4.11,0.63-2.12.16-1.58,0.26-1.88,0.06l-6.58.59c-3.17,1.08-7.27,1-8.34,1.1,0.65-.58,4.31-0.73,5.85-1.43l-2.4,0-0.09.4-3.37.35,0.18-.1a2.83,2.83,0,0,1-1.64.39c-0.15,0-.49-0.1-0.12-0.17l-2.37.54c1.34-.59-2.12.16-1.83-0.34-7.84.82-9.85,2-16.81,2.27,1.15,0.07-2.08,1-4.21,1.22-1.24.05-1.56,0-.81-0.29l-2.74.61c-3.57-.25-6.89.67-12,1.11l0.24-.24a41.7,41.7,0,0,1-6.7,1.27l0.46-.48c-3.5.18-2.53,1.21-6.39,1.47,0.08,0.43,2.52.33,2.95,0.7-1-.32-5.08.17-4.08,0.35-3.79.69-2.64,0.35-3,.28l-2.2.57c-2.68.34-.93-0.46,0-0.84-2.43.81-5.2,0.84-8,1.15l1.12-.35-3.74.43a50.61,50.61,0,0,1-9,1.4l2.09-.87c-2.25,0-1.11.35-1.68,0.53a16.78,16.78,0,0,1-6.13.39c-5.5,1.35-11.24.56-15.9,2.07l-0.63-.26c-6.42,1.6-14,1.58-19.08,3.29-8.1-.12-5.06,1.77-12.48,1.69l0.27,0.14c-24,3-49.43,5.85-71.72,9.45V141c-36.11,4.47-71.16,9.72-106.92,14.36-3.3.67-1.22,0.92-4.06,1.58-1.25.15-4.07,0.56-4.12,0.27,2.4-.49,1-0.56,1.81-0.79-4,.57-9.25.94-12.78,1.78l3.05,0a44.6,44.6,0,0,1-4.84.69c0.51-.27-1.38-0.43-0.31-0.67-7.44,2-6,.39-12.28,1.63-1.16,1-9,2.71-14.22,4l-2.79.16c3.67-.49-0.15-0.58,4.4-1.15-3.82.28-7.3,1.1-10.9,1.46,0.72,0.11.58,0.4-.85,0.68-2.22.19-2.47-.19-5,0.11l2.45-.59c-1.72-.08-3.1.52-4.65,0.78-0.55-.27-4.32.18-3.7-0.29-3.33.92-4.56,0.82-8.17,1.61,3.84-.16-0.91.57-0.45,0.8l4.26-.71c-6.06.59,2-.32,1.42-0.84,2.87-.12-3.76,1.47,1,0.74-5.63,1.06-6.87,1-12.6,2.22,3.49-.58-0.62.46,1.29,0.38-4.44.62-1.13-.05-2.55-0.23-1.24.18-2.09,0.21-2.92,0.3a29.59,29.59,0,0,1,.21,4.23l1.85-.15,2.59-1,2.75,0.08c10.89-1,19.14-2.59,29.42-4.19,3.2-.48,2,0.21,3.52.19,7-.88,8.67-1.87,15.35-2.92-0.9.33-2.39,1.12,0.5,0.76a4.7,4.7,0,0,1,2.66-.75l-0.9.33c1.71,0.08,3.28-.43,6.75-0.76a120.49,120.49,0,0,0,16.76-3.52c5.4-.66-0.46.8,0.58,0.8-3.83.27-2.63,0.48-3.42,0.82,2-.46,4.4-0.91,5.5-0.57a53.59,53.59,0,0,0,6.79-1.26c-1.37.35-2.6,0.25-1.32-.14,2.31-.14,8.13-1.12,7.88-0.47,13.26-1.91,28.13-3.8,42.34-5.75,2.36-.63-1.84.13-0.55-0.27,3.43-.87,2.78-0.16,5.53-0.86l-1.11.48c4.16-.51,8.48-1.71,12.46-2.56-0.62.46,3.35-.14,0,0.53,2-.33,4.57,1,6,0.47l-2.43-1.25c0.09-.17,2.86-0.45,2.57-0.51a36.43,36.43,0,0,0,5.1,0c0.63,0.31-2.37.63-4,.85-0.16.69,5.57-.33,3.28,0.59,3.49-.58-0.54-0.27,1.52-0.79l3.08-.27-2.39.1c2.53-.54,3.34-1.16,6.79-1.25l3.45-1.12c0.43,0.47,2.59-.25,4.43-0.38l-1.09.48a30.89,30.89,0,0,1,4.9-.4c-1.3.64-2.2,0.19-2.73,0.7l2.68-.21c-0.05-.29,1.61-0.75-0.32-0.67,2.39-.88,3.68-1.51,9.86-2.3,2.86,0.12-2.94.85-1.72,1.19,6.44-.65,7.66-2.36,11.42-2.81,4.81-.44,4.47-0.87,9.31-1.55-1.49.55,3.44-.09,4.37,0.11l-1.87.61a5.35,5.35,0,0,1,2.55-.16c0.63-.45,6.43-1.23,9.48-1.84l-0.64-.31c2.59-.48,6.18-1.22,9-1.49,4.1-.68,3.12-0.9,6.23-1.76,1.8,0.12,1.67.56,1.14,1.07-1.13-.05-3,0.32-4.81.44-5.16,1-9.1,2.42-14.32,2.93-2.12,1.26,3.49-.58,6.06-0.59a1,1,0,0,1-.44.15c0.23,0,.42-0.05.64-0.06-1.85.37-4.86,0.93-5.3,1.49,3.1-.52,2.13-1.26,6.06-1.37,2.83-.65,5.27-0.22,7-0.39,1.86-.61,1.84-1.39,6.56-1.88l-2,.81c5.32-.71,2.39-1.12,7.32-1.76-1.74.17,1.6-.75-1.69-0.32a44.71,44.71,0,0,1,7.86-1.25c0.69-.18.12-0.2,0.22-0.4-3,0-4.63,1-7.14.79l-2,.85c-2.78.16-3.12-.26-1.47-0.72a11.06,11.06,0,0,1-2,.28c-0.59-.8,3.35-0.14,4.2-1l-1.94.33c-0.92-.45,4.48-1.11,7-1.41,2.87-.12,5.48-0.37,5.73,0l-3.79.69c2,0.06,4.84-.85,7.06-1.13a2.71,2.71,0,0,0,.64,0,0.22,0.22,0,0,1-.19-0.09,5.83,5.83,0,0,1,1.27,0c1.95-.24,4.77-0.88,6.6-1l-0.27-.33-0.22.24c-1.78.23-4.23,0.33-2.92-.12,4-.8,4.89-0.2,5.89,0-0.85.68-3.92,0.53-5.94,1,1.3,0.38,4.09-.5,8.29-0.69-1.57.83-4.81,0.64-5.65,1.32,3.36-.35,4.17-0.9,7.71-1.22-0.41.34-3.84,0.83-3.56,1.16l2.28-.13c-5.54.78,1.07,0.62-3.23,1.35,2.07,0,2.78-.88,5.74-0.89-0.84-.15-3.23-0.32-0.48-0.93l3.17-.25c1.35,0.11-3.19,1.09-1.11,1.06l3.26-.65c-0.14-.16-1.72,0-0.77-0.42,1.93-.06,3-1.12,5.22-1.69a17.17,17.17,0,0,1,3.86-.25c4.42-1.14,10.11-1.89,14.18-3-2.77.74,0.19,0.6,1.92,0.65-3.24.52-3.19,1.08-2.91,1.42,2-.33,3.19-1.09,2.16-1.14,3.34-.22,2.23-0.7,5.18-0.71,1.91-.06-0.86.69-0.19,0.81,3.57-.46.88-0.82,4.77-1.21-0.2.1-.55,0.18-0.23,0.24a13.56,13.56,0,0,0,4.74-1.08c2.33,0.44,6.27-.93,5.92-0.15,5-.88-0.81-0.29.16-0.68a38.41,38.41,0,0,1,7.11-.9,34.66,34.66,0,0,1-3.58.59l1.13,0.35c6.34-.5,3.84-1.67,10-2.06-3.1.68-1,.52-2.5,1.08,0.93-.25,5.71-0.76,2.77-0.75,2.29-.27,3.89-0.39,5.48-0.51a42,42,0,0,0,5.32-1.39,53.23,53.23,0,0,1,7.18-.34c6.68-1.27,13-1.5,20-2.84l-0.53,0c5.51-.65-2.52-0.33,3.19-1.09-0.68.71,3.48-.05,5.37,0,7-.63,12.05-2.08,18.56-2.55,0,0.13-.43.34-1.68,0.53,5-.47,8.91-1.13,13.35-1.7l-0.18.1c7.19-.47,13.57-1.94,20.92-3.08a12,12,0,0,0-1.16.55c3.73-.36,9.68-1.08,12.21-2,4.49,0,2.9-.58,8.65-0.76,0.34,0.06-.55.18-0.92,0.25,2.82-.18,4.78-0.51,7.62-0.82,6.17-1.23,7.6-2.22,14.87-3,0.48,0.78-4.42.81-4.49,1.49a20.54,20.54,0,0,1,4.67-.75c-1.15.49-.23,0.24-1,0.65,1.55,0,6-1.7,6-1.61,0.06-.17-0.47-0.19-1.9,0,1.62-.74,7.1-1,10.58-1.68-1.14.14-4.74,0.46-3.45-.11,4.73-.46,6.18-1.47,9.42-2.24,4.38-.21-3.1,1.13-2.21,1.6,0.75,0.11,2.56.34,0.77,0.82,3.91-.4,6.64-1.28,10.1-1.87l-0.07.18c4.84-.72,9.91-2.14,14-2.36l-2.18.1a37.28,37.28,0,0,0,4.54-1c-0.09.25,2.28,0.15,2.1,0.38,2.45-1.1,10.76-1.93,13-3,1.32,0,.34.54,0,0.79-3.07.34-4.13,0.31-5.69,0.87,2.54-.36,4.44-0.38,4.07-0.13,2.48-.89,8.51-1.92,9.72-2.64,1.9,0,3.69-.07,3.1.47,7.77-1.34-4-.88,4.77-2.06,4.08-.1-3.84,1.13,1.72.53l-1,.21c4.16,0.63,2.7-1.21,7.24-1.79,0.69,0.55-3.1.88,0.09,0.91,4.13-.72,5.82-1.91,10-2.27l-0.61.36c2.65-.41,7.83-1,10.46-1.39,0.14,0.11-.25.14-0.75,0.25,4.93-.42,2-0.6,6.06-0.7l1.11-.46A40.51,40.51,0,0,0,799.4,92.79Z" transform="translate(0 -0.13)"/><path class="cls-1" d="M467.3,137.11c2.59-.25,2.29-0.14,5.49-0.62C471.57,136.15,469.59,137,467.3,137.11Z" transform="translate(0 -0.13)"/><path class="cls-1" d="M454.43,140c-0.42,0-.85.05-1.31,0.1l-0.82.13Z" transform="translate(0 -0.13)"/><path class="cls-1" d="M540.4,123.54c-0.85.68,0.71-.14,2.6-0.07l1.68-.53C543.08,123.06,541.64,123.35,540.4,123.54Z" transform="translate(0 -0.13)"/><path class="cls-1" d="M295.48,156.47c0.74-.11,1.47-0.22,2.12-0.35A17.08,17.08,0,0,0,295.48,156.47Z" transform="translate(0 -0.13)"/><path class="cls-1" d="M744.64,101.92l-0.28.13A0.66,0.66,0,0,0,744.64,101.92Z" transform="translate(0 -0.13)"/><path class="cls-1" d="M242.88,164.48c0.65,0,1.31-.08,1.94-0.14a4.91,4.91,0,0,0-.78-0.05Z" transform="translate(0 -0.13)"/><polygon class="cls-1" points="507.07 133.72 504.16 134.3 508.49 133.56 507.07 133.72"/><path class="cls-1" d="M431.54,143.8c-7,.63-3.4,1.65-9.65,2.15,3.05,0-2,.57-3,0.85,2.31-.14,5.49-1.39,6.87-1C432.23,144.65,424.17,145,431.54,143.8Z" transform="translate(0 -0.13)"/><polygon class="cls-1" points="433.55 144.66 434.05 144.4 431.54 144.69 433.55 144.66"/><path class="cls-1" d="M437.18,144.54c0.62-.22,3.51-0.59,1.88-0.61Z" transform="translate(0 -0.13)"/><path class="cls-1" d="M449.12,142.49l0.88-.09c-0.21.16,1.89,0.17-.43,0.55C451.39,142.83,452.93,141.79,449.12,142.49Z" transform="translate(0 -0.13)"/><path class="cls-1" d="M417.69,145.93c-0.33.35,2.57,0,3.45-.34C420.3,145.68,418.78,145.45,417.69,145.93Z" transform="translate(0 -0.13)"/><path class="cls-1" d="M406.84,148.52a2.87,2.87,0,0,1-.74.25C406.81,148.63,407.41,148.5,406.84,148.52Z" transform="translate(0 -0.13)"/><path class="cls-1" d="M473.56,138.41c-1.25.15-2.71,0.45-2.43,0.59l3.4-.63Z" transform="translate(0 -0.13)"/><path class="cls-1" d="M408.65,148.64l2-.57-2.46-.19C405.7,148.47,411,147.77,408.65,148.64Z" transform="translate(0 -0.13)"/><path class="cls-1" d="M789.06,94.31c-0.3.2,0.2,0.27,0.71,0.35C792,94.19,789.26,94.35,789.06,94.31Z" transform="translate(0 -0.13)"/><polygon class="cls-1" points="508.5 134.27 511.56 133.72 511.04 133.76 508.5 134.27"/><path class="cls-1" d="M516.73,133.14a14.86,14.86,0,0,1,3.91-.39l-0.83-.16C518.71,132.81,516.47,132.81,516.73,133.14Z" transform="translate(0 -0.13)"/><path class="cls-1" d="M789.06,94.31l0,0S789,94.31,789.06,94.31Z" transform="translate(0 -0.13)"/><path class="cls-1" d="M404.91,148.85l-0.12.2c0.2-.05.59-0.13,1-0.2A1.72,1.72,0,0,1,404.91,148.85Z" transform="translate(0 -0.13)"/><path class="cls-1" d="M479.3,136.37c-0.62-.56-3.1.52-4.26,0.71h2.09C476.68,136.87,478.22,136.61,479.3,136.37Z" transform="translate(0 -0.13)"/><path class="cls-1" d="M477.56,138.58a14.7,14.7,0,0,1-3.2.47A6.63,6.63,0,0,0,477.56,138.58Z" transform="translate(0 -0.13)"/><path class="cls-1" d="M489.27,136.11c-3.8.69-5.64,1.87-7.6,1.42l-3.08,1.3c3.08-.27,2.27-0.92,4.4-1.16,1.14,0-.21.31,0.65,0.33a25.67,25.67,0,0,0,6.27-.93C489.25,137,488.31,136.5,489.27,136.11Z" transform="translate(0 -0.13)"/><polygon class="cls-1" points="506.98 134.12 507.12 134.29 510.39 133.5 506.98 134.12"/><path class="cls-1" d="M48,79.94l11.23,83,49.5-6.69,1.42,10.47-61.94,8.38L35.57,81.63Z" transform="translate(0 -0.13)"/><path class="cls-1" d="M105.24,86.07L103.4,72.45l11.13-1.51,1.84,13.62ZM118,96.74l9.16,67.7L116,165.95l-9.16-67.7Z" transform="translate(0 -0.13)"/><path class="cls-1" d="M194.05,174.86q-6.48,9.28-22.72,11.47a46.61,46.61,0,0,1-9.77.25,29.8,29.8,0,0,1-9.36-2.2,20.91,20.91,0,0,1-7.45-5.26,17.65,17.65,0,0,1-4.14-8.91l11.13-1.51a8.3,8.3,0,0,0,2.59,4.85,14,14,0,0,0,4.78,2.82,21.23,21.23,0,0,0,5.82,1.15,30.38,30.38,0,0,0,5.84-.19,20.86,20.86,0,0,0,9-3.16,17.61,17.61,0,0,0,5.58-6.09,21.84,21.84,0,0,0,2.51-8.54,45.48,45.48,0,0,0-.29-10.49l-0.6-4.45-0.26,0a18.89,18.89,0,0,1-7.46,10.41,27.31,27.31,0,0,1-12,4.62,30.07,30.07,0,0,1-13.6-1,27.91,27.91,0,0,1-10.43-6.12,31.74,31.74,0,0,1-7.17-10.1,45.22,45.22,0,0,1-3.68-12.9,51.9,51.9,0,0,1-.1-12.59A34,34,0,0,1,136,104.77,29,29,0,0,1,144.58,95q5.57-4.15,14.34-5.34a25.23,25.23,0,0,1,12.17,1.22,20,20,0,0,1,9.52,7.31l0.13,0-1.31-9.69L189.91,87,198.28,149Q200.53,165.58,194.05,174.86Zm-18.32-28.52a18.42,18.42,0,0,0,5.4-6.86,27.81,27.81,0,0,0,2.33-8.92,41.35,41.35,0,0,0-.16-9.58,37.53,37.53,0,0,0-2.23-8.63,24.77,24.77,0,0,0-4.39-7.34,17.54,17.54,0,0,0-6.71-4.76,17.85,17.85,0,0,0-9.19-.89,19.39,19.39,0,0,0-8.89,3.27,18,18,0,0,0-5.48,6.28,23.24,23.24,0,0,0-2.47,8.33,38.56,38.56,0,0,0,.14,9.45,47,47,0,0,0,2.16,9,26.24,26.24,0,0,0,4.27,7.89,17.83,17.83,0,0,0,6.71,5.23,17.13,17.13,0,0,0,9.47,1.05A18.19,18.19,0,0,0,175.73,146.34Z" transform="translate(0 -0.13)"/><path class="cls-1" d="M210.51,58l4.83,35.75,0.26,0a15,15,0,0,1,2.95-5.8,21,21,0,0,1,4.83-4.25,27.72,27.72,0,0,1,5.88-2.86,31.39,31.39,0,0,1,6.13-1.5,29.64,29.64,0,0,1,11.38.33,18.5,18.5,0,0,1,7.89,4.13A19.15,19.15,0,0,1,259.58,91a42.3,42.3,0,0,1,2.47,9.87l6,44.52-11.13,1.51-6.2-45.83q-0.85-6.28-5-9.46t-10.58-2.3a22.9,22.9,0,0,0-8.63,2.76,16.75,16.75,0,0,0-5.62,5.29,19.37,19.37,0,0,0-2.82,7.25,27.65,27.65,0,0,0-.1,8.61l5.17,38.24L212,153,199.38,59.47Z" transform="translate(0 -0.13)"/><path class="cls-1" d="M300.81,72l1.33,9.82-13.49,1.82,5.68,42a12.22,12.22,0,0,0,.75,3.1,3.26,3.26,0,0,0,1.49,1.67,5.53,5.53,0,0,0,2.67.51,37.3,37.3,0,0,0,4.28-.38l5.11-.69,1.33,9.82-8.51,1.15a40.22,40.22,0,0,1-7.48.41,11,11,0,0,1-5.27-1.49,9.3,9.3,0,0,1-3.42-4.07,25.94,25.94,0,0,1-1.94-7.47l-5.83-43.08L266,86.73l-1.33-9.82,11.52-1.56-2.74-20.29,11.13-1.51,2.74,20.29Z" transform="translate(0 -0.13)"/><path class="cls-2" d="M305.5,45.44l58.66-7.93,0.67,5-52.9,7.15L317,87.08l47.66-6.45,0.67,5-47.66,6.45,6.23,46.09-5.76.78Z" transform="translate(0 -0.13)"/><path class="cls-2" d="M419.78,111.58l-0.26,0a20.93,20.93,0,0,1-2.63,6.16,24.42,24.42,0,0,1-4.79,5.51,27.17,27.17,0,0,1-6.83,4.26,32.14,32.14,0,0,1-8.74,2.38q-10.74,1.45-17.26-2.4T371.44,114a17,17,0,0,1,6.22-16.64,25.75,25.75,0,0,1,7.57-4.16,79.23,79.23,0,0,1,8.27-2.45l7.64-1.7a46.1,46.1,0,0,0,8.28-2.38,10.88,10.88,0,0,0,4.33-3,6.76,6.76,0,0,0,1.44-4.13,37.25,37.25,0,0,0-.4-5.94,12.56,12.56,0,0,0-1.74-5,11.58,11.58,0,0,0-3.84-3.75,16.39,16.39,0,0,0-6.15-2.1,31.06,31.06,0,0,0-8.78.12q-9,1.22-14,6.43T376,83.64l-5,.67q-1-11.2,4.88-17.66t18-8.11q12.18-1.65,18.39,2.38a15.84,15.84,0,0,1,7.26,11.75l5.3,39.15q0.19,1.44.45,2.87a9.7,9.7,0,0,0,.81,2.56,4,4,0,0,0,1.57,1.72,4.17,4.17,0,0,0,2.72.37,24,24,0,0,0,3.61-.89l0.57,4.19a15.83,15.83,0,0,1-4,1.07,12.06,12.06,0,0,1-4.89-.14,6.32,6.32,0,0,1-3-1.73,7.78,7.78,0,0,1-1.66-2.91,21.5,21.5,0,0,1-.85-3.82ZM416.42,86.7a9.53,9.53,0,0,1-5.16,3.77,69.81,69.81,0,0,1-8.16,2.3l-8.27,1.92q-3.62.89-7.18,2.11a21.54,21.54,0,0,0-6.28,3.32,13.66,13.66,0,0,0-4.15,5.29,14.45,14.45,0,0,0-.8,7.91q1,7.46,6.21,10.43t13.45,1.85q8.51-1.15,13.07-4.9a24.09,24.09,0,0,0,6.64-8.1,22,22,0,0,0,2.29-8.18,33.41,33.41,0,0,0,0-5.14Z" transform="translate(0 -0.13)"/><path class="cls-2" d="M429.51,55.33l5-.67,1.95,14.4,0.26,0a21.75,21.75,0,0,1,2.82-7.25A25,25,0,0,1,451,51.89a29.32,29.32,0,0,1,7.58-2.09,30.89,30.89,0,0,1,10.21.09,19.82,19.82,0,0,1,7.26,2.88,18.56,18.56,0,0,1,4.84,4.75,24.84,24.84,0,0,1,3,5.67,35.75,35.75,0,0,1,1.57,5.72q0.51,2.8.79,4.89l5.63,41.64-5,.67-5.76-42.56q-0.34-2.49-1.24-6.23a19.33,19.33,0,0,0-3.27-7,16.79,16.79,0,0,0-6.57-5.18q-4.2-2-11-1a23.94,23.94,0,0,0-9.93,3.48,22.33,22.33,0,0,0-6.81,6.85A25.91,25.91,0,0,0,438.77,74a37.72,37.72,0,0,0-.1,11.55l4.92,36.4-5,.67Z" transform="translate(0 -0.13)"/><path class="cls-2" d="M519,47.63l-14.66,2,6.36,47a18.32,18.32,0,0,0,1.78,6.29,7.39,7.39,0,0,0,3.3,3.22,10.07,10.07,0,0,0,4.79.89,47.2,47.2,0,0,0,6.24-.71l0.58,4.32a47.07,47.07,0,0,1-7.41.93,15,15,0,0,1-6.62-1.1,11.59,11.59,0,0,1-5.05-4.32q-2.08-3.05-2.6-8.85l-6.36-47L486.92,52l-0.58-4.32L498.78,46,495.94,25l5-.67,2.83,20.95,14.66-2Z" transform="translate(0 -0.13)"/><path class="cls-2" d="M575.73,90.49l-0.26,0a20.94,20.94,0,0,1-2.63,6.16A24.35,24.35,0,0,1,568,102.2a27.13,27.13,0,0,1-6.82,4.26,32.19,32.19,0,0,1-8.74,2.38q-10.74,1.45-17.26-2.4T527.39,92.9a17,17,0,0,1,6.22-16.64,25.77,25.77,0,0,1,7.57-4.16,79.14,79.14,0,0,1,8.27-2.45l7.64-1.7a46,46,0,0,0,8.28-2.38,10.88,10.88,0,0,0,4.33-3,6.77,6.77,0,0,0,1.44-4.13,37.25,37.25,0,0,0-.4-5.94,12.56,12.56,0,0,0-1.74-5,11.58,11.58,0,0,0-3.84-3.75,16.38,16.38,0,0,0-6.15-2.1,31.06,31.06,0,0,0-8.78.12q-9,1.22-14,6.43t-4.27,14.31l-5,.67q-1-11.2,4.88-17.66t18-8.11q12.18-1.65,18.39,2.38a15.83,15.83,0,0,1,7.26,11.75l5.3,39.15c0.13,1,.28,1.92.45,2.87a9.65,9.65,0,0,0,.81,2.56,4,4,0,0,0,1.57,1.72,4.18,4.18,0,0,0,2.72.37,24.18,24.18,0,0,0,3.61-.89l0.57,4.19a15.78,15.78,0,0,1-4,1.07,12,12,0,0,1-4.89-.14,6.34,6.34,0,0,1-3-1.73,7.78,7.78,0,0,1-1.66-2.91,21.5,21.5,0,0,1-.85-3.82Zm-3.36-24.88a9.53,9.53,0,0,1-5.16,3.77,69.9,69.9,0,0,1-8.16,2.3l-8.27,1.92q-3.62.89-7.18,2.11A21.51,21.51,0,0,0,537.31,79a13.66,13.66,0,0,0-4.15,5.29,14.45,14.45,0,0,0-.8,7.91q1,7.46,6.21,10.43T552,104.5q8.51-1.15,13.07-4.9a24.08,24.08,0,0,0,6.64-8.1A22,22,0,0,0,574,83.32a33.3,33.3,0,0,0,0-5.14Z" transform="translate(0 -0.13)"/><path class="cls-2" d="M593.76,78.85a20.81,20.81,0,0,0,3.22,8,20,20,0,0,0,13,8.44,27,27,0,0,0,8.69.16,45.4,45.4,0,0,0,6.93-1.54,24.58,24.58,0,0,0,6.65-3.1,14.56,14.56,0,0,0,4.71-5.1,11.74,11.74,0,0,0,1.13-7.42q-0.76-5.63-4.56-8A24.05,24.05,0,0,0,624.35,67a87.82,87.82,0,0,0-11.48-1,58.17,58.17,0,0,1-11.53-1.44,22.83,22.83,0,0,1-9.33-4.4q-3.89-3.14-4.83-10.08a14.79,14.79,0,0,1,1.1-8.62,16.72,16.72,0,0,1,5-6.07,26.15,26.15,0,0,1,7.41-3.87,45.07,45.07,0,0,1,8.53-2,39.72,39.72,0,0,1,10-.15A21.46,21.46,0,0,1,627.62,32a18.25,18.25,0,0,1,6.14,6A23.26,23.26,0,0,1,637,47.54l-5,.67a18.9,18.9,0,0,0-2.57-7.65,13.84,13.84,0,0,0-4.91-4.74,18.39,18.39,0,0,0-6.76-2.15,30.56,30.56,0,0,0-8,.08A37.37,37.37,0,0,0,603,35.33a20,20,0,0,0-5.92,3.07,14.1,14.1,0,0,0-4,4.67,10.23,10.23,0,0,0-1,6.26A10.35,10.35,0,0,0,595,55.62a14.16,14.16,0,0,0,5.71,3.29,35.77,35.77,0,0,0,7.53,1.45l8.3,0.74q5.1,0.25,9.65.89a26.73,26.73,0,0,1,8.05,2.38,15.6,15.6,0,0,1,5.79,4.88,18.3,18.3,0,0,1,3,8.39A15.49,15.49,0,0,1,641.8,87a19.4,19.4,0,0,1-5.51,6.55,26.94,26.94,0,0,1-8,4.15,51,51,0,0,1-9,2.08,36.6,36.6,0,0,1-10.88-.06,24.37,24.37,0,0,1-9.2-3.42,22,22,0,0,1-6.78-6.75,25.6,25.6,0,0,1-3.63-10Z" transform="translate(0 -0.13)"/><path class="cls-2" d="M669.84,27.23l-14.66,2,6.36,47a18.33,18.33,0,0,0,1.78,6.29,7.38,7.38,0,0,0,3.3,3.22,10.05,10.05,0,0,0,4.79.89,47.29,47.29,0,0,0,6.24-.71l0.58,4.32a47.17,47.17,0,0,1-7.41.93,14.94,14.94,0,0,1-6.62-1.1,11.59,11.59,0,0,1-5.05-4.32q-2.08-3.05-2.6-8.85l-6.36-47-12.44,1.68-0.58-4.32,12.44-1.68L646.78,4.61l5-.67,2.83,20.95,14.67-2Z" transform="translate(0 -0.13)"/><path class="cls-2" d="M674.09,9.32L672.92,0.8l5-.67,1.16,8.52Zm10.82,80L675.8,22l5-.67,9.1,67.3Z" transform="translate(0 -0.13)"/><path class="cls-2" d="M746.19,33.7a19.66,19.66,0,0,0-3.35-7.55,17.72,17.72,0,0,0-5.67-5,22.51,22.51,0,0,0-7.47-2.46,30.47,30.47,0,0,0-8.74,0,23.72,23.72,0,0,0-10.78,4.06,24.76,24.76,0,0,0-7.2,7.91A31.17,31.17,0,0,0,699.31,41a37.62,37.62,0,0,0-.19,11.43,48.1,48.1,0,0,0,3.27,12.36,28.76,28.76,0,0,0,6.2,9.36,22.74,22.74,0,0,0,9,5.52,26,26,0,0,0,11.71.82,23.49,23.49,0,0,0,15-8,22.58,22.58,0,0,0,4.15-7.29,27.18,27.18,0,0,0,1.48-8.8l5-.67a31.89,31.89,0,0,1-1.82,11.18,26.54,26.54,0,0,1-5.21,8.77,27.5,27.5,0,0,1-8,6.08,33.81,33.81,0,0,1-24.46,2,27.15,27.15,0,0,1-10.63-6.63,33.94,33.94,0,0,1-7-10.71,51.82,51.82,0,0,1-3.6-13.31,43.58,43.58,0,0,1,.22-13.63,33,33,0,0,1,4.47-11.8,28.55,28.55,0,0,1,8.68-8.77,30.61,30.61,0,0,1,12.85-4.54,37.4,37.4,0,0,1,10.47,0,26.87,26.87,0,0,1,9.07,3,21.73,21.73,0,0,1,7,6.18,25.2,25.2,0,0,1,4.22,9.5Z" transform="translate(0 -0.13)"/><path class="cls-2" d="M226.92,188.37a6.28,6.28,0,0,1,4.81.94,7,7,0,0,1,1.18,8.76,6.17,6.17,0,0,1-4.39,2.17l-6.13.83,1.11,8.21-2.67.36-2.71-20.07Zm0.4,9.74a4.81,4.81,0,0,0,3.21-1.38,3.56,3.56,0,0,0,.68-2.9,3.52,3.52,0,0,0-1.43-2.6,5,5,0,0,0-3.46-.49l-5.23.71,1,7.37Z" transform="translate(0 -0.13)"/><path class="cls-2" d="M258,184.16a6.67,6.67,0,0,1,4.67.8,4.89,4.89,0,0,1,2.14,3.63,6.15,6.15,0,0,1-.4,3.32,4.31,4.31,0,0,1-2.4,2.24v0.06a3.62,3.62,0,0,1,1.49.37,3.15,3.15,0,0,1,1,.82,4.35,4.35,0,0,1,.64,1.16,13.25,13.25,0,0,1,.43,1.37q0.15,0.72.29,1.48a12.92,12.92,0,0,0,.34,1.47,9.19,9.19,0,0,0,.51,1.35,3.47,3.47,0,0,0,.79,1.08l-3,.4a1.69,1.69,0,0,1-.49-0.79,8.7,8.7,0,0,1-.29-1.18l-0.25-1.41a10,10,0,0,0-.37-1.47q-0.21-.71-0.47-1.35a3.33,3.33,0,0,0-.69-1.08,2.69,2.69,0,0,0-1.06-.66,3.59,3.59,0,0,0-1.61-.08l-6.52.88,1.16,8.57-2.67.36-2.71-20.07Zm1.79,9a3.9,3.9,0,0,0,1.4-.75,3,3,0,0,0,.86-1.23,3.71,3.71,0,0,0,.14-1.84A3.63,3.63,0,0,0,261,187a3.5,3.5,0,0,0-2.86-.59l-6.63.9,0.95,7,5.57-.75A10.64,10.64,0,0,0,259.8,193.2Z" transform="translate(0 -0.13)"/><path class="cls-2" d="M280.35,187.34a10,10,0,0,1,1.36-3.6A9,9,0,0,1,284.4,181a10.61,10.61,0,0,1,8.38-1.13,8.94,8.94,0,0,1,3.32,1.93,10,10,0,0,1,2.27,3.11,13.33,13.33,0,0,1,1.07,7.9,10.05,10.05,0,0,1-1.36,3.6,8.78,8.78,0,0,1-2.69,2.73,10.77,10.77,0,0,1-8.38,1.13,8.77,8.77,0,0,1-3.32-1.91,10,10,0,0,1-2.27-3.11A13.33,13.33,0,0,1,280.35,187.34Zm3.4,6.61a8.18,8.18,0,0,0,1.6,2.49,6.37,6.37,0,0,0,2.42,1.61,7.33,7.33,0,0,0,6.3-.85A6.38,6.38,0,0,0,296,195a8.18,8.18,0,0,0,.88-2.82,11.68,11.68,0,0,0-.81-6,8.22,8.22,0,0,0-1.6-2.49,6.38,6.38,0,0,0-2.42-1.6,7.34,7.34,0,0,0-6.3.85,6.38,6.38,0,0,0-1.91,2.19,8.22,8.22,0,0,0-.88,2.82A11.68,11.68,0,0,0,283.75,194Z" transform="translate(0 -0.13)"/><path class="cls-2" d="M320.53,175.71q4.64-.63,7.46,1.4t3.48,6.86a16.37,16.37,0,0,1,0,4.56,8.46,8.46,0,0,1-1.3,3.52,7.63,7.63,0,0,1-2.73,2.45,12.18,12.18,0,0,1-4.23,1.29l-6.89.93-2.71-20.07Zm2.64,17.79a10.94,10.94,0,0,0,1.12-.22,6.27,6.27,0,0,0,1.39-.53,6.61,6.61,0,0,0,1.4-1,5.11,5.11,0,0,0,1.15-1.56,7.76,7.76,0,0,0,.68-2.31,11.56,11.56,0,0,0,0-3.21,13.55,13.55,0,0,0-.79-3.17,6.23,6.23,0,0,0-1.48-2.26A5.14,5.14,0,0,0,324.3,178a8.33,8.33,0,0,0-3.19-.1l-4.5.61,2.11,15.57Z" transform="translate(0 -0.13)"/><path class="cls-2" d="M362.14,189a8.3,8.3,0,0,1-5.59,2.72,9.19,9.19,0,0,1-6.31-1q-2.43-1.55-3-5.57l-1.73-12.82,2.67-.36L350,184.78a5.5,5.5,0,0,0,2,3.9,5.75,5.75,0,0,0,4.32.83,5.2,5.2,0,0,0,3.71-1.92,5.74,5.74,0,0,0,.78-4.27L359,170.5l2.67-.36L363.41,183Q363.94,186.81,362.14,189Z" transform="translate(0 -0.13)"/><path class="cls-2" d="M390.7,169.11a6.27,6.27,0,0,0-3.79-.57,6.56,6.56,0,0,0-3,1.09,6.1,6.1,0,0,0-1.86,2.1,7.89,7.89,0,0,0-.87,2.76,11.73,11.73,0,0,0,0,3.09,13.08,13.08,0,0,0,.83,3.19,7.84,7.84,0,0,0,1.58,2.51A6.1,6.1,0,0,0,386,184.8a6.66,6.66,0,0,0,3.18.26,6,6,0,0,0,2.29-.75,5.38,5.38,0,0,0,1.61-1.45,5.65,5.65,0,0,0,.92-2,7.73,7.73,0,0,0,.19-2.37l2.67-.36a9.19,9.19,0,0,1-1.81,6.26,8.54,8.54,0,0,1-5.79,2.93,9.76,9.76,0,0,1-4.18-.25,8.07,8.07,0,0,1-3.19-1.81,9.55,9.55,0,0,1-2.18-3.08,14.27,14.27,0,0,1-1.13-4,13.49,13.49,0,0,1,.06-4.2,10,10,0,0,1,1.36-3.6,8.55,8.55,0,0,1,2.67-2.67,9.71,9.71,0,0,1,4-1.38,10.47,10.47,0,0,1,3,0,8.1,8.1,0,0,1,2.67.9,7,7,0,0,1,2.1,1.79,7.54,7.54,0,0,1,1.34,2.7l-2.67.36A5,5,0,0,0,390.7,169.11Z" transform="translate(0 -0.13)"/><path class="cls-2" d="M408.87,166.05l-0.3-2.25,16.05-2.17,0.3,2.25-6.69.9,2.41,17.82L418,183l-2.41-17.82Z" transform="translate(0 -0.13)"/><path class="cls-2" d="M441.85,159.3l2.71,20.07-2.67.36-2.71-20.07Z" transform="translate(0 -0.13)"/><path class="cls-2" d="M458.88,163.2a10,10,0,0,1,1.36-3.6,9,9,0,0,1,2.69-2.74,10.61,10.61,0,0,1,8.38-1.13,8.93,8.93,0,0,1,3.32,1.93,10,10,0,0,1,2.27,3.11,13.32,13.32,0,0,1,1.07,7.9,10.05,10.05,0,0,1-1.36,3.6,8.79,8.79,0,0,1-2.69,2.73,10.78,10.78,0,0,1-8.38,1.13,8.79,8.79,0,0,1-3.32-1.91,10.05,10.05,0,0,1-2.27-3.11A13.34,13.34,0,0,1,458.88,163.2Zm3.4,6.61a8.2,8.2,0,0,0,1.6,2.49,6.36,6.36,0,0,0,2.42,1.6,7.33,7.33,0,0,0,6.3-.85,6.36,6.36,0,0,0,1.91-2.19,8.17,8.17,0,0,0,.88-2.82,11.68,11.68,0,0,0-.81-6,8.19,8.19,0,0,0-1.6-2.49,6.4,6.4,0,0,0-2.42-1.6,7.34,7.34,0,0,0-6.3.85,6.39,6.39,0,0,0-1.91,2.19,8.22,8.22,0,0,0-.88,2.82A11.68,11.68,0,0,0,462.28,169.81Z" transform="translate(0 -0.13)"/><path class="cls-2" d="M495,152.11L507.75,167h0.06l-2.2-16.28,2.53-.34,2.71,20.07-2.92.39-12.66-14.69h-0.06l2.18,16.11-2.53.34-2.71-20.07Z" transform="translate(0 -0.13)"/><path class="cls-2" d="M555.16,146.77a5.71,5.71,0,0,0-3.55-.51,8.16,8.16,0,0,0-1.64.39,4.44,4.44,0,0,0-1.37.76,3,3,0,0,0-.87,1.19,3.28,3.28,0,0,0-.16,1.69,2.11,2.11,0,0,0,.75,1.43,4.07,4.07,0,0,0,1.59.74,12.32,12.32,0,0,0,2.15.33q1.18,0.08,2.42.2t2.44,0.34a7.76,7.76,0,0,1,2.2.75,4.93,4.93,0,0,1,1.68,1.43,5.77,5.77,0,0,1,.54,5.24,6,6,0,0,1-1.59,2.1,8,8,0,0,1-2.37,1.38,12.28,12.28,0,0,1-2.72.7,11.85,11.85,0,0,1-3.25,0,7.91,7.91,0,0,1-2.82-.92,6.09,6.09,0,0,1-2.1-2A7.11,7.11,0,0,1,545.4,159l2.53-.34a4.4,4.4,0,0,0,2.28,3.44,5.53,5.53,0,0,0,2,.62,8.62,8.62,0,0,0,2.23,0,10,10,0,0,0,1.79-.42,5.37,5.37,0,0,0,1.57-.8,3.11,3.11,0,0,0,1.24-3.13,2.52,2.52,0,0,0-.78-1.61,4.08,4.08,0,0,0-1.6-.86,10.88,10.88,0,0,0-2.16-.38l-2.42-.2q-1.23-.1-2.43-0.3a8.58,8.58,0,0,1-2.19-.65,4.2,4.2,0,0,1-2.52-3.51,5.37,5.37,0,0,1,.26-2.71,5.45,5.45,0,0,1,1.4-2,7.43,7.43,0,0,1,2.19-1.38,10.36,10.36,0,0,1,2.64-.71,10.81,10.81,0,0,1,2.92,0,6.54,6.54,0,0,1,2.48.84,5.62,5.62,0,0,1,1.84,1.77,7.17,7.17,0,0,1,1,2.77l-2.53.34A4.22,4.22,0,0,0,555.16,146.77Z" transform="translate(0 -0.13)"/><path class="cls-2" d="M589,139.39l0.3,2.25-11.19,1.51,0.86,6.38,10.43-1.41,0.3,2.25-10.43,1.41,0.94,6.94,11.27-1.52,0.3,2.25-13.94,1.89-2.71-20.07Z" transform="translate(0 -0.13)"/><path class="cls-2" d="M614,136a6.67,6.67,0,0,1,4.67.8,4.89,4.89,0,0,1,2.14,3.63,6.16,6.16,0,0,1-.4,3.32A4.3,4.3,0,0,1,618,146v0.06a3.62,3.62,0,0,1,1.5.37,3.16,3.16,0,0,1,1,.82,4.32,4.32,0,0,1,.64,1.16,13.25,13.25,0,0,1,.43,1.37c0.1,0.48.2,1,.29,1.48a13,13,0,0,0,.34,1.47,9.26,9.26,0,0,0,.51,1.35,3.48,3.48,0,0,0,.79,1.08l-3,.4a1.69,1.69,0,0,1-.49-0.79,8.6,8.6,0,0,1-.29-1.18l-0.25-1.41a9.88,9.88,0,0,0-.37-1.47q-0.21-.71-0.47-1.35a3.31,3.31,0,0,0-.69-1.08,2.68,2.68,0,0,0-1.06-.66,3.59,3.59,0,0,0-1.61-.08l-6.52.88L610,157l-2.67.36-2.71-20.07Zm1.79,9a3.88,3.88,0,0,0,1.4-.75,3,3,0,0,0,.86-1.23,3.73,3.73,0,0,0,.14-1.84,3.63,3.63,0,0,0-1.18-2.36,3.5,3.5,0,0,0-2.86-.59l-6.63.9,0.95,7,5.57-.75A10.64,10.64,0,0,0,615.82,145Z" transform="translate(0 -0.13)"/><path class="cls-2" d="M643.64,152.45l-9.77-19.12,2.87-.39,8.09,16.63h0.06l3.44-18.19,2.78-.38-4.42,21Z" transform="translate(0 -0.13)"/><path class="cls-2" d="M668.25,128.68L671,148.75l-2.67.36L665.58,129Z" transform="translate(0 -0.13)"/><path class="cls-2" d="M697.49,127.62a6.27,6.27,0,0,0-3.79-.57,6.57,6.57,0,0,0-3,1.09,6.13,6.13,0,0,0-1.86,2.1A7.91,7.91,0,0,0,688,133a11.72,11.72,0,0,0,0,3.09,13.07,13.07,0,0,0,.83,3.19,7.84,7.84,0,0,0,1.58,2.51,6.1,6.1,0,0,0,2.37,1.53,6.66,6.66,0,0,0,3.18.26,6,6,0,0,0,2.29-.75,5.38,5.38,0,0,0,1.61-1.45,5.65,5.65,0,0,0,.92-2A7.77,7.77,0,0,0,701,137l2.67-.36a9.19,9.19,0,0,1-1.81,6.26,8.54,8.54,0,0,1-5.79,2.93,9.76,9.76,0,0,1-4.18-.25,8.07,8.07,0,0,1-3.19-1.81,9.55,9.55,0,0,1-2.18-3.08,14.25,14.25,0,0,1-1.13-4,13.51,13.51,0,0,1,.06-4.2,10,10,0,0,1,1.36-3.6,8.53,8.53,0,0,1,2.67-2.67,9.71,9.71,0,0,1,4-1.38,10.47,10.47,0,0,1,3,0,8.1,8.1,0,0,1,2.67.9,7,7,0,0,1,2.1,1.79,7.53,7.53,0,0,1,1.34,2.7l-2.67.36A5,5,0,0,0,697.49,127.62Z" transform="translate(0 -0.13)"/><path class="cls-2" d="M731.36,120.14l0.3,2.25-11.19,1.51,0.86,6.38,10.43-1.41,0.3,2.25-10.43,1.41,0.94,6.94L733.85,138l0.3,2.25-13.94,1.89L717.5,122Z" transform="translate(0 -0.13)"/><path class="cls-2" d="M757.32,119.42a5.72,5.72,0,0,0-3.55-.51,8.05,8.05,0,0,0-1.63.39,4.45,4.45,0,0,0-1.37.76,3,3,0,0,0-.87,1.19,3.28,3.28,0,0,0-.16,1.69,2.11,2.11,0,0,0,.75,1.43,4.09,4.09,0,0,0,1.59.74,12.32,12.32,0,0,0,2.15.33q1.18,0.08,2.42.2t2.44,0.34a7.78,7.78,0,0,1,2.21.75,5,5,0,0,1,1.68,1.43,5.77,5.77,0,0,1,.54,5.24,5.94,5.94,0,0,1-1.59,2.1,8.12,8.12,0,0,1-2.38,1.38,12.4,12.4,0,0,1-2.72.7,11.89,11.89,0,0,1-3.25,0,7.91,7.91,0,0,1-2.82-.92,6.11,6.11,0,0,1-2.1-2,7.12,7.12,0,0,1-1.09-3.07l2.53-.34a4.4,4.4,0,0,0,2.28,3.44,5.53,5.53,0,0,0,2,.62,8.68,8.68,0,0,0,2.23,0,10.08,10.08,0,0,0,1.79-.42,5.34,5.34,0,0,0,1.57-.8A3.1,3.1,0,0,0,761.2,131a2.53,2.53,0,0,0-.78-1.61,4.09,4.09,0,0,0-1.6-.86,10.88,10.88,0,0,0-2.16-.38l-2.42-.2c-0.82-.07-1.63-0.17-2.43-0.3a8.59,8.59,0,0,1-2.19-.65,4.47,4.47,0,0,1-1.66-1.29,4.42,4.42,0,0,1-.86-2.22,5.38,5.38,0,0,1,.26-2.71,5.47,5.47,0,0,1,1.4-2,7.47,7.47,0,0,1,2.19-1.39,10.41,10.41,0,0,1,2.64-.71,10.87,10.87,0,0,1,2.92,0,6.57,6.57,0,0,1,2.48.84,5.6,5.6,0,0,1,1.84,1.77,7.15,7.15,0,0,1,1,2.77l-2.53.34A4.22,4.22,0,0,0,757.32,119.42Z" transform="translate(0 -0.13)"/></svg>